<svg xmlns="http://www.w3.org/2000/svg" width="40" height="34" viewBox="0 0 40 34">
  <path id="air_FILL0_wght400_GRAD0_opsz48" d="M23.25,40a6.2,6.2,0,0,1-4.275-1.4A5.4,5.4,0,0,1,17.4,34.35h3.4a2.971,2.971,0,0,0,.575,1.975A2.338,2.338,0,0,0,23.25,37a2.585,2.585,0,0,0,1.925-.6,2.926,2.926,0,0,0,.575-2.05,3.238,3.238,0,0,0-.575-2.125,2.408,2.408,0,0,0-1.925-.675H4v-3H23.25a5.556,5.556,0,0,1,4.1,1.4,6.01,6.01,0,0,1,1.4,4.4,5.78,5.78,0,0,1-1.4,4.25,5.556,5.556,0,0,1-4.1,1.4ZM4,19.6v-3H31.4a3.627,3.627,0,0,0,2.7-.875,4.117,4.117,0,0,0,.85-2.925,4.117,4.117,0,0,0-.85-2.925A3.627,3.627,0,0,0,31.4,9a3.378,3.378,0,0,0-2.75,1.025A3.9,3.9,0,0,0,27.8,12.6h-3a6.632,6.632,0,0,1,1.75-4.75A6.355,6.355,0,0,1,31.4,6a6.434,6.434,0,0,1,4.8,1.775A6.853,6.853,0,0,1,37.95,12.8a6.853,6.853,0,0,1-1.75,5.025A6.434,6.434,0,0,1,31.4,19.6ZM37.6,36.1v-3a3.189,3.189,0,0,0,2.575-.975A4.263,4.263,0,0,0,41,29.3a3.579,3.579,0,0,0-.925-2.75A3.818,3.818,0,0,0,37.4,25.7H4v-3H37.4a6.555,6.555,0,0,1,4.85,1.75A6.555,6.555,0,0,1,44,29.3a7.124,7.124,0,0,1-1.65,5A6.12,6.12,0,0,1,37.6,36.1Z" transform="translate(-4 -6)" fill="#fff"/>
</svg>
