<svg xmlns="http://www.w3.org/2000/svg" width="107.426" height="106.856" viewBox="0 0 107.426 106.856">
  <path id="Icon_weather-rain-wind" data-name="Icon weather-rain-wind" d="M5.556,58.019A25.687,25.687,0,0,0,23.831,82.766a1.293,1.293,0,0,0,1.243-.414l6.005-7.4a15.96,15.96,0,0,1-11.8-4.97,17.043,17.043,0,0,1-.569-23.349,15.955,15.955,0,0,1,10.872-5.384l2.744-.362c.569,0,.828-.207.828-.673l.414-2.847a21.561,21.561,0,0,1,7.2-14.134,21.318,21.318,0,0,1,14.755-5.591,21.471,21.471,0,0,1,14.858,5.643,20.773,20.773,0,0,1,7.093,14.082l.362,3a1.043,1.043,0,0,0,1.139.88h8.387a16.792,16.792,0,0,1,16.826,16.774,16.33,16.33,0,0,1-4.349,11.286A16.748,16.748,0,0,1,89.115,74.9a14.351,14.351,0,0,0-2.537.311A2.553,2.553,0,0,0,84.456,76.4L72.238,90.842a4.036,4.036,0,0,0-.828,3.262,4.418,4.418,0,0,0,1.6,2.951,3.748,3.748,0,0,0,2.9.984,3.544,3.544,0,0,0,3.158-1.812L90.047,83.594a25.718,25.718,0,0,0,22.935-25.575,25.342,25.342,0,0,0-2.019-9.992A24.858,24.858,0,0,0,97.347,34.412a25.158,25.158,0,0,0-9.992-2.019H85.7A31,31,0,0,0,55.464,8.94a30.7,30.7,0,0,0-13.616,3.106A31.075,31.075,0,0,0,31.079,20.64a29.4,29.4,0,0,0-5.85,12.529,24.371,24.371,0,0,0-14.237,8.9A25.1,25.1,0,0,0,5.556,58.019Zm17.5,41.521a6.581,6.581,0,0,0,.311,1.553,3.951,3.951,0,0,0,2.278,2.278,4.261,4.261,0,0,0,3.469.1,3.93,3.93,0,0,0,2.381-2.33,4.027,4.027,0,0,0,.1-3.365,3.767,3.767,0,0,0-2.381-2.226A3.858,3.858,0,0,0,25.85,95.4a4.4,4.4,0,0,0-2.381,2.433A3.783,3.783,0,0,0,23.055,99.54Zm9.578-12.632v.518a4.069,4.069,0,0,0,1.553,2.9,6.507,6.507,0,0,0,3.21.984A4.092,4.092,0,0,0,40.553,89.6L52.564,75.259A4.91,4.91,0,0,0,53.6,71.842,4.114,4.114,0,0,0,52.15,69.1a4.044,4.044,0,0,0-2.692-1.139,2.962,2.962,0,0,0-.725.052,4.545,4.545,0,0,0-2.9,1.708L33.616,84.06A4.333,4.333,0,0,0,32.632,86.908Zm3.986,24.436A3.415,3.415,0,0,0,37.033,113a4.37,4.37,0,0,0,2.278,2.433,4.06,4.06,0,0,0,1.708.362,3.07,3.07,0,0,0,1.6-.362,4.18,4.18,0,0,0,2.433-2.123,4.261,4.261,0,0,0,.1-3.469,3.685,3.685,0,0,0-2.33-2.381,4.261,4.261,0,0,0-3.469-.1,3.719,3.719,0,0,0-2.33,2.33A2.928,2.928,0,0,0,36.619,111.344Zm8.646-12.166v.569a4.126,4.126,0,0,0,1.6,2.847,4.463,4.463,0,0,0,2.847,1.139,4.359,4.359,0,0,0,3.262-1.708L75.5,74.9a3.915,3.915,0,0,0,.88-2.692v-.621a3.938,3.938,0,0,0-1.4-2.744A4.079,4.079,0,0,0,72.289,67.8h-.673a3.541,3.541,0,0,0-2.847,1.6L46.248,96.33A4.432,4.432,0,0,0,45.265,99.178Zm18.172,5.954a4.59,4.59,0,0,0,.311,1.553,4.238,4.238,0,0,0,2.381,2.433,6.434,6.434,0,0,0,1.6.311,3.4,3.4,0,0,0,1.76-.414,4.294,4.294,0,0,0,2.485-5.643,3.951,3.951,0,0,0-2.278-2.278l-1.864-.466c-.466.1-.984.207-1.657.362a3.767,3.767,0,0,0-2.33,2.278A5.3,5.3,0,0,0,63.436,105.131Z" transform="translate(-5.556 -8.94)" fill="#fff"/>
</svg>
