<svg xmlns="http://www.w3.org/2000/svg" width="109.995" height="110.098" viewBox="0 0 109.995 110.098">
  <path id="Icon_weather-day-sunny" data-name="Icon weather-day-sunny" d="M5.244,59.547a4.355,4.355,0,0,1,1.289-3.2,4.454,4.454,0,0,1,3.093-1.237H20.142a3.907,3.907,0,0,1,2.99,1.289,4.843,4.843,0,0,1,.052,6.289,3.832,3.832,0,0,1-2.99,1.289H9.677a4.207,4.207,0,0,1-3.093-1.289A4.288,4.288,0,0,1,5.244,59.547ZM19.988,95.272a4.775,4.775,0,0,1,1.186-3.145l7.578-7.372a3.964,3.964,0,0,1,3.042-1.186,4.367,4.367,0,0,1,3.093,1.186,3.854,3.854,0,0,1,1.237,2.938,4.863,4.863,0,0,1-1.237,3.3l-7.32,7.32a4.681,4.681,0,0,1-6.341,0A4.162,4.162,0,0,1,19.988,95.272Zm0-71.347a4.775,4.775,0,0,1,1.186-3.145,4.95,4.95,0,0,1,3.3-1.289,4.334,4.334,0,0,1,3.042,1.237l7.372,7.578a4,4,0,0,1,1.237,3.042,4.228,4.228,0,0,1-4.33,4.33,4,4,0,0,1-3.042-1.237L21.225,27.07A4.315,4.315,0,0,1,19.988,23.925ZM33.133,59.547a26.02,26.02,0,0,1,3.609-13.4A26.922,26.922,0,0,1,46.588,36.3,26.447,26.447,0,0,1,70.4,34.854a26.932,26.932,0,0,1,8.557,5.774A27.05,27.05,0,0,1,86.8,59.6a26.069,26.069,0,0,1-3.609,13.455,27.036,27.036,0,0,1-9.795,9.795,26.888,26.888,0,0,1-26.91,0,27.035,27.035,0,0,1-9.795-9.795A27.389,27.389,0,0,1,33.133,59.547Zm8.764,0A18.217,18.217,0,0,0,60.043,77.8,18.3,18.3,0,0,0,78.292,59.547a17.378,17.378,0,0,0-5.361-12.733,17.663,17.663,0,0,0-12.888-5.258,17.43,17.43,0,0,0-12.785,5.258A17.182,17.182,0,0,0,41.9,59.547ZM55.609,99.654A4.049,4.049,0,0,1,56.9,96.561a4.365,4.365,0,0,1,3.093-1.237,4.315,4.315,0,0,1,3.145,1.237,4.2,4.2,0,0,1,1.237,3.093v10.259a4.355,4.355,0,0,1-1.289,3.2,4.207,4.207,0,0,1-3.093,1.289,4.127,4.127,0,0,1-3.093-1.289,4.355,4.355,0,0,1-1.289-3.2V99.654Zm0-79.9V9.233A4.207,4.207,0,0,1,56.9,6.14,4.288,4.288,0,0,1,60.043,4.8a4.127,4.127,0,0,1,3.093,1.289,4.207,4.207,0,0,1,1.289,3.093V19.75a3.907,3.907,0,0,1-1.289,2.99,4.317,4.317,0,0,1-3.093,1.186A4.456,4.456,0,0,1,56.95,22.74,4.057,4.057,0,0,1,55.609,19.75ZM84.066,87.694a4.048,4.048,0,0,1,4.073-4.073,4.367,4.367,0,0,1,3.093,1.186l7.526,7.372A4.487,4.487,0,0,1,100,95.324a4.162,4.162,0,0,1-1.237,3.042,4.59,4.59,0,0,1-6.186,0l-7.32-7.32A5.019,5.019,0,0,1,84.066,87.694Zm0-56.294a4,4,0,0,1,1.186-3.042l7.32-7.578a4.334,4.334,0,0,1,3.042-1.237,4.049,4.049,0,0,1,3.093,1.289A4.207,4.207,0,0,1,100,23.925a4.352,4.352,0,0,1-1.237,3.2l-7.526,7.372a4.547,4.547,0,0,1-3.093,1.237,3.744,3.744,0,0,1-2.887-1.237A4.367,4.367,0,0,1,84.066,31.4ZM95.716,59.547a4.61,4.61,0,0,1,1.237-3.2,4.014,4.014,0,0,1,2.938-1.237h10.413A4.375,4.375,0,0,1,113.4,62.64a4.207,4.207,0,0,1-3.093,1.289H99.892A3.832,3.832,0,0,1,96.9,62.64,4.456,4.456,0,0,1,95.716,59.547Z" transform="translate(-4.994 -4.55)" fill="#fff" stroke="#fff" stroke-width="0.5"/>
</svg>
