<svg xmlns="http://www.w3.org/2000/svg" width="139.162" height="108.409" viewBox="0 0 139.162 108.409">
  <path id="Icon_weather-day-cloudy" data-name="Icon weather-day-cloudy" d="M1.872,83.875A25.483,25.483,0,0,0,27.4,109.5H83.464a25.6,25.6,0,0,0,25.679-25.627,26.749,26.749,0,0,0-2.174-10.354,26.065,26.065,0,0,0,5.9-17.085,27.288,27.288,0,0,0-2.123-10.561A27.076,27.076,0,0,0,85.742,29.307c-7.662,0-14.341,3-20.087,9.008A27.688,27.688,0,0,0,51.676,34.9,30.76,30.76,0,0,0,21.6,59.024,24.579,24.579,0,0,0,7.412,67.981,24.963,24.963,0,0,0,1.872,83.875Zm8.853,0A16.025,16.025,0,0,1,15.074,72.64a16.987,16.987,0,0,1,10.872-5.488L28.534,67a.861.861,0,0,0,.984-.932l.362-2.8a22.155,22.155,0,0,1,7.3-14.03A20.9,20.9,0,0,1,51.728,43.6a21.519,21.519,0,0,1,14.858,5.695,20.656,20.656,0,0,1,7.093,14.03l.362,3a.993.993,0,0,0,1.087.88h8.335a16.974,16.974,0,0,1,16.774,16.722,16.491,16.491,0,0,1-4.918,12.011,16.043,16.043,0,0,1-11.8,4.97H27.4a15.867,15.867,0,0,1-11.752-5.022A16.661,16.661,0,0,1,10.725,83.875ZM45.412,20.351a4.756,4.756,0,0,0,1.243,3.262l3.417,3.313a4.847,4.847,0,0,0,3.313,1.294,3.814,3.814,0,0,0,2.847-1.346,4.541,4.541,0,0,0,1.243-3.21,3.924,3.924,0,0,0-1.346-3.055l-3.055-3.417a4.6,4.6,0,0,0-3.158-1.243,4.373,4.373,0,0,0-3.21,1.294A4.066,4.066,0,0,0,45.412,20.351ZM73.058,43.286a18.377,18.377,0,0,1,25.73.155,17.663,17.663,0,0,1,5.384,12.995,19.2,19.2,0,0,1-2.64,9.526,24.745,24.745,0,0,0-18.068-7.455H81.807A30.875,30.875,0,0,0,73.058,43.286ZM81.5,15.95a4.464,4.464,0,0,0,1.191,3.21,3.98,3.98,0,0,0,3.055,1.191,4.464,4.464,0,0,0,3.21-1.191,4.256,4.256,0,0,0,1.191-3.21V5.337A4.1,4.1,0,0,0,88.9,2.283a4.214,4.214,0,0,0-3.158-1.191,4.261,4.261,0,0,0-3.055,1.191A3.98,3.98,0,0,0,81.5,5.337V15.95Zm28.578,11.856a4.432,4.432,0,0,0,1.139,3.21,5.352,5.352,0,0,0,3.21,1.243,5.2,5.2,0,0,0,3.055-1.243l7.4-7.4a4.792,4.792,0,0,0,1.243-3.313,4.245,4.245,0,0,0-4.3-4.349,3.905,3.905,0,0,0-3,1.243l-7.61,7.4A4.976,4.976,0,0,0,110.074,27.806Zm4.09,61.3a4.576,4.576,0,0,0,1.294,3.262l3.365,3.262a3.905,3.905,0,0,0,3,1.243,4.067,4.067,0,0,0,3.106-1.294,4.454,4.454,0,0,0,1.243-3.21,4.147,4.147,0,0,0-1.243-3L121.568,86a4.031,4.031,0,0,0-2.951-1.243A4.215,4.215,0,0,0,115.51,86,4.112,4.112,0,0,0,114.164,89.1Zm7.61-32.668a3.972,3.972,0,0,0,1.346,3,4.333,4.333,0,0,0,3.158,1.243H136.84a4.226,4.226,0,0,0,3-1.191,3.981,3.981,0,0,0,1.191-3.055,4.385,4.385,0,0,0-1.191-3.106,4.027,4.027,0,0,0-3-1.294H126.279a4.258,4.258,0,0,0-3.158,1.294A4.086,4.086,0,0,0,121.775,56.436Z" transform="translate(-1.872 -1.092)" fill="#fff"/>
</svg>
