<svg xmlns="http://www.w3.org/2000/svg" width="80" height="80" viewBox="0 0 80 80">
  <path id="loading-svgrepo-com_2_" data-name="loading-svgrepo-com (2)" d="M44,64a8,8,0,1,1-8,8A8,8,0,0,1,44,64ZM18.965,52a10,10,0,1,1-10,10A10,10,0,0,1,18.965,52Zm46.312,2a8,8,0,1,1-8,8A8,8,0,0,1,65.277,54ZM74,37.274a6,6,0,1,1-6,6A6,6,0,0,1,74,37.274ZM10,24A10,10,0,1,1,0,34,10,10,0,0,1,10,24Zm61.143-3.171a4,4,0,1,1-4,4A4,4,0,0,1,71.143,20.829ZM32,0A12,12,0,1,1,20,12,12,12,0,0,1,32,0ZM62,12a2,2,0,1,1-2,2A2,2,0,0,1,62,12Z" fill="#fff" fill-rule="evenodd"/>
</svg>
