<svg xmlns="http://www.w3.org/2000/svg" width="32" height="40" viewBox="0 0 32 40">
  <path id="location_on_FILL0_wght400_GRAD0_opsz48" d="M24,23.5a3.5,3.5,0,0,0,2.475-5.975,3.5,3.5,0,0,0-4.95,4.95A3.372,3.372,0,0,0,24,23.5Zm0,16.55a58.561,58.561,0,0,0,9.825-10.975Q37,24.15,37,20.4a13.015,13.015,0,0,0-3.775-9.65A12.592,12.592,0,0,0,24,7a12.592,12.592,0,0,0-9.225,3.75A13.015,13.015,0,0,0,11,20.4q0,3.75,3.25,8.675A63.591,63.591,0,0,0,24,40.05ZM24,44A66.487,66.487,0,0,1,11.975,31.275Q8,25.4,8,20.4q0-7.5,4.825-11.95a16.257,16.257,0,0,1,22.35,0Q40,12.9,40,20.4q0,5-3.975,10.875A66.487,66.487,0,0,1,24,44ZM24,20.4Z" transform="translate(-8 -4)" fill="#fff"/>
</svg>
