<svg xmlns="http://www.w3.org/2000/svg" xmlns:xlink="http://www.w3.org/1999/xlink" width="24" height="24" viewBox="0 0 24 24">
  <defs>
    <clipPath id="clip-path">
      <rect id="Rectangle_306" data-name="Rectangle 306" width="24" height="24" transform="translate(323 613)" fill="#fff"/>
    </clipPath>
  </defs>
  <g id="Mask_Group_9" data-name="Mask Group 9" transform="translate(-323 -613)" clip-path="url(#clip-path)">
    <path id="Icon_weather-rain-wind" data-name="Icon weather-rain-wind" d="M5.556,16.741a4.083,4.083,0,0,0,2.9,3.933.205.205,0,0,0,.2-.066l.955-1.177a2.537,2.537,0,0,1-1.876-.79,2.709,2.709,0,0,1-.091-3.711,2.536,2.536,0,0,1,1.728-.856l.436-.058c.091,0,.132-.033.132-.107l.066-.453a3.427,3.427,0,0,1,1.144-2.246,3.548,3.548,0,0,1,4.707.008,3.3,3.3,0,0,1,1.127,2.238l.058.477a.166.166,0,0,0,.181.14h1.333a2.668,2.668,0,0,1,1.983,4.46,2.662,2.662,0,0,1-1.7.889,2.281,2.281,0,0,0-.4.049.406.406,0,0,0-.337.189l-1.942,2.3a.641.641,0,0,0-.132.518.7.7,0,0,0,.255.469.6.6,0,0,0,.461.156.563.563,0,0,0,.5-.288l1.744-2.008a4.088,4.088,0,0,0,3.645-4.065,4.028,4.028,0,0,0-.321-1.588,3.951,3.951,0,0,0-2.164-2.164,4,4,0,0,0-1.588-.321h-.263A4.927,4.927,0,0,0,13.488,8.94a4.88,4.88,0,0,0-2.164.494A4.939,4.939,0,0,0,9.613,10.8a4.672,4.672,0,0,0-.93,1.991A3.874,3.874,0,0,0,6.42,14.206,3.99,3.99,0,0,0,5.556,16.741Zm2.781,6.6a1.046,1.046,0,0,0,.049.247.628.628,0,0,0,.362.362.677.677,0,0,0,.551.016.625.625,0,0,0,.379-.37.64.64,0,0,0,.016-.535.6.6,0,0,0-.379-.354.613.613,0,0,0-.535-.025.7.7,0,0,0-.379.387A.6.6,0,0,0,8.337,23.34ZM9.86,21.332v.082a.647.647,0,0,0,.247.461,1.034,1.034,0,0,0,.51.156.65.65,0,0,0,.5-.272l1.909-2.279a.78.78,0,0,0,.165-.543.654.654,0,0,0-.23-.436.643.643,0,0,0-.428-.181.471.471,0,0,0-.115.008.722.722,0,0,0-.461.272L10.016,20.88A.689.689,0,0,0,9.86,21.332Zm.634,3.884a.543.543,0,0,0,.066.263.7.7,0,0,0,.362.387.645.645,0,0,0,.272.058.488.488,0,0,0,.255-.058.664.664,0,0,0,.387-.337.677.677,0,0,0,.016-.551.586.586,0,0,0-.37-.379.677.677,0,0,0-.551-.016.591.591,0,0,0-.37.37A.465.465,0,0,0,10.493,25.216Zm1.374-1.934v.091a.656.656,0,0,0,.255.453.709.709,0,0,0,.453.181.693.693,0,0,0,.518-.272l3.579-4.312a.622.622,0,0,0,.14-.428v-.1a.626.626,0,0,0-.222-.436.648.648,0,0,0-.428-.165h-.107a.563.563,0,0,0-.453.255L12.024,22.83A.7.7,0,0,0,11.867,23.282Zm2.888.946a.729.729,0,0,0,.049.247.674.674,0,0,0,.379.387,1.023,1.023,0,0,0,.255.049.541.541,0,0,0,.28-.066.682.682,0,0,0,.395-.9.628.628,0,0,0-.362-.362l-.3-.074c-.074.016-.156.033-.263.058a.6.6,0,0,0-.37.362A.843.843,0,0,0,14.756,24.229Z" transform="translate(320.872 607.489)" fill="#fff"/>
  </g>
</svg>
