<svg xmlns="http://www.w3.org/2000/svg" width="25.279" height="27.969" viewBox="0 0 25.279 27.969">
  <g id="Subtraction_2" data-name="Subtraction 2" transform="translate(-150.756 1178.463)" fill="rgba(255,255,255,0.2)">
    <path d="M173.886-1150.494h0a52.56,52.56,0,0,0-23.13-14.433,1.97,1.97,0,0,1,.863-.988l21.422-12.279a1.973,1.973,0,0,1,.992-.268,2.023,2.023,0,0,1,1.471.643,1.969,1.969,0,0,1,.527,1.493l-1.645,24.637a1.972,1.972,0,0,1-.5,1.195Z" stroke="none"/>
    <path d="M 173.4306335449219 -1152.40771484375 L 175.0323486328125 -1176.393188476562 C 175.0514678955078 -1176.677490234375 174.961669921875 -1176.934448242188 174.7727355957031 -1177.136596679688 C 174.5788116455078 -1177.343994140625 174.3089141845703 -1177.462890625 174.0322570800781 -1177.462890625 C 173.8589172363281 -1177.462890625 173.6970977783203 -1177.41845703125 173.5375671386719 -1177.327026367188 L 152.6672668457031 -1165.3642578125 C 160.4690246582031 -1162.721557617188 167.5901031494141 -1158.277954101562 173.4306335449219 -1152.40771484375 M 173.8862915039062 -1150.494140625 L 173.8855438232422 -1150.494873046875 C 167.564697265625 -1157.265502929688 159.5666351318359 -1162.256225585938 150.7559661865234 -1164.927490234375 C 150.9226837158203 -1165.346801757812 151.2211761474609 -1165.688110351562 151.6185150146484 -1165.915771484375 L 173.040283203125 -1178.194580078125 C 173.3509979248047 -1178.372680664062 173.6847534179688 -1178.462890625 174.0322570800781 -1178.462890625 C 174.5847320556641 -1178.462890625 175.120849609375 -1178.228393554688 175.5031433105469 -1177.819580078125 C 175.8805694580078 -1177.415893554688 176.0677032470703 -1176.885498046875 176.0301055908203 -1176.326171875 L 174.3849029541016 -1151.689575195312 C 174.3547973632812 -1151.238891601562 174.1826324462891 -1150.825805664062 173.8870239257812 -1150.494995117188 L 173.8862915039062 -1150.494140625 Z" stroke="none" fill="rgba(255,255,255,0.6)"/>
  </g>
</svg>
