<svg xmlns="http://www.w3.org/2000/svg" width="20.134" height="20.667" viewBox="0 0 20.134 20.667">
  <g id="Subtraction_6" data-name="Subtraction 6" transform="matrix(0.309, -0.951, 0.951, 0.309, 2739.993, 392.658)" fill="rgba(255,255,255,0.5)">
    <path d="M-476.993-2706.572a1.267,1.267,0,0,1-.333-.044,15.655,15.655,0,0,0-3.882-6.521,15.744,15.744,0,0,0-7.069-4.042,1.106,1.106,0,0,1,.836-1.2l14.192-3.918a1.278,1.278,0,0,1,.339-.046,1.257,1.257,0,0,1,1.007.507,1.1,1.1,0,0,1,.175.985l-4.133,13.481A1.162,1.162,0,0,1-476.993-2706.572Z" stroke="none"/>
    <path d="M -476.7275390625 -2707.953125 L -472.6829833984375 -2721.146240234375 C -472.6789855957031 -2721.1591796875 -472.6684265136719 -2721.193603515625 -472.70556640625 -2721.243896484375 C -472.7520141601562 -2721.306640625 -472.8298034667969 -2721.345703125 -472.9085693359375 -2721.345703125 C -472.9322814941406 -2721.345703125 -472.9570922851562 -2721.34228515625 -472.9817810058594 -2721.33544921875 L -486.4156494140625 -2717.626220703125 C -484.1490478515625 -2716.776123046875 -482.1647644042969 -2715.508056640625 -480.5003356933594 -2713.843505859375 C -478.8444213867188 -2712.187255859375 -477.5784301757812 -2710.209716796875 -476.7275390625 -2707.953125 M -476.9926452636719 -2706.571533203125 C -477.1052856445312 -2706.571533203125 -477.2173767089844 -2706.58642578125 -477.3257751464844 -2706.615966796875 C -478.1116333007812 -2709.15234375 -479.4173889160156 -2711.345947265625 -481.20751953125 -2713.136474609375 C -483.1277160644531 -2715.056884765625 -485.5059814453125 -2716.416748046875 -488.2762145996094 -2717.178466796875 C -488.3407897949219 -2717.7333984375 -487.9966125488281 -2718.2275390625 -487.4400024414062 -2718.380859375 L -473.2479248046875 -2722.29931640625 C -473.1362915039062 -2722.330078125 -473.0220947265625 -2722.345703125 -472.9085693359375 -2722.345703125 C -472.5128479003906 -2722.345703125 -472.1363525390625 -2722.156005859375 -471.9014892578125 -2721.83837890625 C -471.6873474121094 -2721.548828125 -471.6236877441406 -2721.189697265625 -471.7268981933594 -2720.85302734375 L -475.8597106933594 -2707.3720703125 C -476.0069885253906 -2706.893310546875 -476.4622802734375 -2706.571533203125 -476.9926452636719 -2706.571533203125 Z" stroke="none" fill="rgba(255,255,255,0.6)"/>
  </g>
</svg>
